<svg id="Calque_1" data-name="Calque 1" xmlns="http://www.w3.org/2000/svg" viewBox="0 0 283.46 283.46"><defs><style>.cls-1{fill:#7f39fb;}.cls-2{fill:#fff;}</style></defs><path class="cls-1" d="M246.23,126.22l-101-112.55.1-.09h-65A23.81,23.81,0,0,0,56.53,37.39V244.5a23.81,23.81,0,0,0,23.81,23.81H222.57a23.81,23.81,0,0,0,23.81-23.81V126.09Z"/><path class="cls-2" d="M146.73,14.33a2.23,2.23,0,0,0-3.89,1.53v83.9c0,14.54,10.87,26.33,24.28,26.33h79.26Z"/><path class="cls-2" d="M199.32,212.22h-30.1v22.55H204.4v10.16H156.49V171.66h47.56v10.27H169.22v20.23h30.1Z"/><path class="cls-2" d="M129.69,166H99.6v22.54h35.18v10.17H86.87V125.44h47.55V135.7H99.6v20.23h30.09Z"/></svg>